<svg width="30" height="30" viewBox="0 0 30 30" fill="none" xmlns="http://www.w3.org/2000/svg">
<g clip-path="url(#clip0)">
<path d="M28.3538 11.7425L26.0038 11.4437C25.81 10.8475 25.5713 10.2725 25.2925 9.72625L26.7438 7.8575C27.3313 7.10125 27.2625 6.03375 26.5913 5.38375L24.6225 3.415C23.9663 2.7375 22.8988 2.67 22.1413 3.25625L20.275 4.7075C19.7288 4.42875 19.1538 4.19 18.5563 3.99625L18.2575 1.65C18.145 0.70875 17.3463 0 16.4 0H13.6C12.6538 0 11.855 0.70875 11.7425 1.64625L11.4438 3.99625C10.8463 4.19 10.2713 4.4275 9.725 4.7075L7.8575 3.25625C7.1025 2.67 6.035 2.7375 5.38375 3.40875L3.415 5.37625C2.7375 6.03375 2.66875 7.10125 3.25625 7.85875L4.7075 9.72625C4.4275 10.2725 4.19 10.8475 3.99625 11.4437L1.65 11.7425C0.70875 11.855 0 12.6538 0 13.6V16.4C0 17.3462 0.70875 18.145 1.64625 18.2575L3.99625 18.5563C4.19 19.1525 4.42875 19.7275 4.7075 20.2737L3.25625 22.1425C2.66875 22.8988 2.7375 23.9663 3.40875 24.6163L5.3775 26.585C6.035 27.2612 7.10125 27.3287 7.85875 26.7425L9.72625 25.2912C10.2725 25.5712 10.8475 25.81 11.4438 26.0025L11.7425 28.3475C11.855 29.2912 12.6538 30 13.6 30H16.4C17.3463 30 18.145 29.2913 18.2575 28.3538L18.5563 26.0037C19.1525 25.81 19.7275 25.5712 20.2738 25.2925L22.1425 26.7438C22.8988 27.3313 23.9663 27.2625 24.6163 26.5913L26.585 24.6225C27.2625 23.965 27.3313 22.8987 26.7438 22.1412L25.2925 20.2737C25.5725 19.7275 25.8113 19.1525 26.0038 18.5563L28.3488 18.2575C29.29 18.145 29.9988 17.3462 29.9988 16.4V13.6C30 12.6538 29.2913 11.855 28.3538 11.7425V11.7425ZM15 21.25C11.5538 21.25 8.75 18.4462 8.75 15C8.75 11.5538 11.5538 8.75 15 8.75C18.4463 8.75 21.25 11.5538 21.25 15C21.25 18.4462 18.4463 21.25 15 21.25Z" fill="#FEFEFE"/>
</g>
<defs>
<clipPath id="clip0">
<rect width="30" height="30" fill="white"/>
</clipPath>
</defs>
</svg>
